<svg width="53" height="54" viewBox="0 0 53 54" fill="none" xmlns="http://www.w3.org/2000/svg">
<path d="M4.05033 13.786L26.5 0.580093L48.9497 13.786V40.214L26.5 53.4199L4.05033 40.214V13.786Z" fill="url(#paint0_linear_326_4)" stroke="white"/>
<path d="M36.6933 18.1069C34.92 17.2802 33 16.6802 31 16.3336C30.9825 16.333 30.965 16.3363 30.9489 16.3432C30.9328 16.3501 30.9183 16.3605 30.9067 16.3736C30.6667 16.8136 30.3867 17.3869 30.2 17.8269C28.0787 17.5069 25.9213 17.5069 23.8 17.8269C23.6133 17.3736 23.3333 16.8136 23.08 16.3736C23.0667 16.3469 23.0267 16.3336 22.9867 16.3336C20.9867 16.6802 19.08 17.2802 17.2933 18.1069C17.28 18.1069 17.2667 18.1202 17.2533 18.1336C13.6267 23.5602 12.6267 28.8402 13.12 34.0669C13.12 34.0936 13.1333 34.1202 13.16 34.1336C15.56 35.8936 17.8667 36.9602 20.1467 37.6669C20.1867 37.6802 20.2267 37.6669 20.24 37.6402C20.7733 36.9069 21.2533 36.1336 21.6667 35.3202C21.6933 35.2669 21.6667 35.2136 21.6133 35.2002C20.8533 34.9069 20.1333 34.5602 19.4267 34.1602C19.3733 34.1336 19.3733 34.0536 19.4133 34.0136C19.56 33.9069 19.7067 33.7869 19.8533 33.6802C19.88 33.6536 19.92 33.6536 19.9467 33.6669C24.5333 35.7602 29.48 35.7602 34.0133 33.6669C34.04 33.6536 34.08 33.6536 34.1067 33.6802C34.2533 33.8002 34.4 33.9069 34.5467 34.0269C34.6 34.0669 34.6 34.1469 34.5333 34.1736C33.84 34.5869 33.1067 34.9202 32.3467 35.2136C32.2933 35.2269 32.28 35.2936 32.2933 35.3336C32.72 36.1469 33.2 36.9202 33.72 37.6536C33.76 37.6669 33.8 37.6802 33.84 37.6669C36.1333 36.9602 38.44 35.8936 40.84 34.1336C40.8667 34.1202 40.88 34.0936 40.88 34.0669C41.4667 28.0269 39.9067 22.7869 36.7467 18.1336C36.7333 18.1202 36.72 18.1069 36.6933 18.1069ZM22.36 30.8802C20.9867 30.8802 19.84 29.6136 19.84 28.0536C19.84 26.4936 20.96 25.2269 22.36 25.2269C23.7733 25.2269 24.8933 26.5069 24.88 28.0536C24.88 29.6136 23.76 30.8802 22.36 30.8802ZM31.6533 30.8802C30.28 30.8802 29.1333 29.6136 29.1333 28.0536C29.1333 26.4936 30.2533 25.2269 31.6533 25.2269C33.0667 25.2269 34.1867 26.5069 34.1733 28.0536C34.1733 29.6136 33.0667 30.8802 31.6533 30.8802Z" fill="white"/>
<defs>
<linearGradient id="paint0_linear_326_4" x1="4.5" y1="27" x2="48.5" y2="27" gradientUnits="userSpaceOnUse">
<stop stop-color="#8B159C"/>
<stop offset="1" stop-color="#4A5BCE"/>
</linearGradient>
</defs>
</svg>
