<svg width="38" height="29" viewBox="0 0 38 29" fill="none" xmlns="http://www.w3.org/2000/svg">
<path d="M31.8243 2.52855C29.4608 1.4268 26.9019 0.627144 24.2364 0.165121C24.213 0.164373 24.1898 0.168759 24.1683 0.17797C24.1468 0.187181 24.1276 0.200993 24.112 0.218432C23.7922 0.804846 23.419 1.56896 23.1702 2.15538C20.343 1.72889 17.4678 1.72889 14.6405 2.15538C14.3918 1.55119 14.0186 0.804846 13.681 0.218432C13.6632 0.182891 13.6099 0.165121 13.5566 0.165121C10.891 0.627144 8.34992 1.4268 5.96872 2.52855C5.95095 2.52855 5.93318 2.54632 5.91541 2.56409C1.08193 9.79653 -0.250826 16.8335 0.406669 23.7994C0.406669 23.8349 0.424439 23.8705 0.459979 23.8882C3.6586 26.2339 6.73284 27.6555 9.77153 28.5973C9.82484 28.6151 9.87815 28.5973 9.89592 28.5618C10.6067 27.5844 11.2465 26.5538 11.7973 25.4698C11.8329 25.3987 11.7973 25.3276 11.7262 25.3099C10.7133 24.9189 9.75376 24.4569 8.81194 23.9238C8.74086 23.8883 8.74086 23.7816 8.79417 23.7283C8.98964 23.5862 9.18511 23.4262 9.38059 23.2841C9.41613 23.2485 9.46944 23.2485 9.50498 23.2663C15.6179 26.0562 22.2106 26.0562 28.2525 23.2663C28.288 23.2485 28.3413 23.2485 28.3769 23.2841C28.5723 23.444 28.7678 23.5862 28.9633 23.7461C29.0344 23.7994 29.0344 23.906 28.9455 23.9416C28.0215 24.4924 27.0441 24.9367 26.0312 25.3276C25.9601 25.3454 25.9424 25.4342 25.9601 25.4876C26.5288 26.5715 27.1685 27.6022 27.8615 28.5796C27.9148 28.5973 27.9681 28.6151 28.0215 28.5973C31.0779 27.6555 34.1521 26.2339 37.3508 23.8882C37.3863 23.8705 37.4041 23.8349 37.4041 23.7994C38.186 15.7495 36.1069 8.76587 31.8953 2.56409C31.8776 2.54632 31.8598 2.52855 31.8243 2.52855ZM12.7214 19.5523C10.891 19.5523 9.36282 17.8642 9.36282 15.7851C9.36282 13.706 10.8555 12.0178 12.7214 12.0178C14.605 12.0178 16.0977 13.7237 16.0799 15.7851C16.0799 17.8642 14.5872 19.5523 12.7214 19.5523ZM25.1072 19.5523C23.2768 19.5523 21.7486 17.8642 21.7486 15.7851C21.7486 13.706 23.2413 12.0178 25.1072 12.0178C26.9908 12.0178 28.4835 13.7237 28.4657 15.7851C28.4657 17.8642 26.9908 19.5523 25.1072 19.5523Z" fill="white"/>
</svg>
