<svg width="53" height="54" viewBox="0 0 53 54" fill="none" xmlns="http://www.w3.org/2000/svg">
<path d="M4.05033 13.786L26.5 0.580093L48.9497 13.786V40.214L26.5 53.4199L4.05033 40.214V13.786Z" fill="url(#paint0_linear_401_11)" stroke="white"/>
<path d="M26.5 13C19.075 13 13 19.0858 13 26.5813C13 33.3584 17.941 38.9834 24.394 40V30.512H20.965V26.5813H24.394V23.5858C24.394 20.1837 26.4055 18.3133 29.497 18.3133C30.9685 18.3133 32.5075 18.5708 32.5075 18.5708V21.9187H30.8065C29.1325 21.9187 28.606 22.9624 28.606 24.0331V26.5813H32.359L31.7515 30.512H28.606V40C31.7872 39.4956 34.684 37.8659 36.7734 35.4052C38.8628 32.9445 40.0072 29.8149 40 26.5813C40 19.0858 33.925 13 26.5 13Z" fill="white"/>
<defs>
<linearGradient id="paint0_linear_401_11" x1="4.5" y1="27" x2="48.5" y2="27" gradientUnits="userSpaceOnUse">
<stop stop-color="#8B159C"/>
<stop offset="1" stop-color="#4A5BCE"/>
</linearGradient>
</defs>
</svg>
