<svg width="33" height="33" viewBox="0 0 33 33" fill="none" xmlns="http://www.w3.org/2000/svg">
<path d="M24.0046 0.413574H9.26198C6.9819 0.416013 4.79591 1.32285 3.18365 2.93511C1.57139 4.54737 0.664548 6.73337 0.662109 9.01345V23.7561C0.664548 26.0362 1.57139 28.2222 3.18365 29.8344C4.79591 31.4467 6.9819 32.3535 9.26198 32.356H24.0046C26.2847 32.3535 28.4707 31.4467 30.083 29.8344C31.6952 28.2222 32.6021 26.0362 32.6045 23.7561V9.01345C32.6021 6.73337 31.6952 4.54737 30.083 2.93511C28.4707 1.32285 26.2847 0.416013 24.0046 0.413574ZM16.6333 23.7561C15.1754 23.7561 13.7502 23.3238 12.538 22.5138C11.3258 21.7038 10.381 20.5526 9.82309 19.2056C9.26517 17.8587 9.1192 16.3766 9.40362 14.9467C9.68804 13.5168 10.3901 12.2034 11.421 11.1725C12.4519 10.1416 13.7653 9.43951 15.1952 9.15508C16.6251 8.87066 18.1073 9.01664 19.4542 9.57456C20.8011 10.1325 21.9524 11.0773 22.7623 12.2895C23.5723 13.5017 24.0046 14.9269 24.0046 16.3848C24.0026 18.3391 23.2253 20.2129 21.8434 21.5948C20.4614 22.9768 18.5877 23.7541 16.6333 23.7561ZM25.8475 9.01345C25.483 9.01345 25.1267 8.90537 24.8236 8.70287C24.5206 8.50038 24.2844 8.21257 24.1449 7.87584C24.0054 7.5391 23.9689 7.16857 24.04 6.8111C24.1111 6.45362 24.2866 6.12526 24.5444 5.86754C24.8021 5.60981 25.1305 5.4343 25.4879 5.3632C25.8454 5.29209 26.2159 5.32858 26.5527 5.46806C26.8894 5.60754 27.1772 5.84374 27.3797 6.1468C27.5822 6.44985 27.6903 6.80614 27.6903 7.17062C27.6903 7.65937 27.4961 8.1281 27.1505 8.47369C26.8049 8.81929 26.3362 9.01345 25.8475 9.01345ZM21.5475 16.3848C21.5475 17.3567 21.2593 18.3068 20.7193 19.115C20.1793 19.9231 19.4118 20.553 18.5139 20.9249C17.6159 21.2969 16.6278 21.3942 15.6746 21.2046C14.7213 21.0149 13.8457 20.5469 13.1584 19.8596C12.4712 19.1724 12.0031 18.2967 11.8135 17.3435C11.6239 16.3902 11.7212 15.4021 12.0932 14.5042C12.4651 13.6062 13.095 12.8387 13.9031 12.2987C14.7112 11.7588 15.6614 11.4706 16.6333 11.4706C17.9366 11.4706 19.1866 11.9883 20.1082 12.9099C21.0298 13.8315 21.5475 15.0814 21.5475 16.3848Z" fill="white"/>
</svg>
