<svg width="29" height="28" viewBox="0 0 29 28" fill="none" xmlns="http://www.w3.org/2000/svg">
<path d="M25.4364 0.165039C26.2551 0.165039 27.0403 0.490278 27.6193 1.06921C28.1982 1.64814 28.5234 2.43333 28.5234 3.25206V24.8612C28.5234 25.6799 28.1982 26.4651 27.6193 27.0441C27.0403 27.623 26.2551 27.9482 25.4364 27.9482H3.82726C3.00853 27.9482 2.22333 27.623 1.6444 27.0441C1.06547 26.4651 0.740234 25.6799 0.740234 24.8612V3.25206C0.740234 2.43333 1.06547 1.64814 1.6444 1.06921C2.22333 0.490278 3.00853 0.165039 3.82726 0.165039H25.4364ZM24.6647 24.0895V15.9089C24.6647 14.5743 24.1345 13.2945 23.1909 12.3508C22.2472 11.4071 20.9673 10.877 19.6328 10.877C18.3208 10.877 16.7928 11.6796 16.0519 12.8836V11.1703H11.7455V24.0895H16.0519V16.48C16.0519 15.2914 17.0088 14.319 18.1973 14.319C18.7705 14.319 19.3201 14.5467 19.7253 14.952C20.1306 15.3572 20.3583 15.9068 20.3583 16.48V24.0895H24.6647ZM6.72906 8.74696C7.41679 8.74696 8.07636 8.47376 8.56266 7.98746C9.04896 7.50116 9.32216 6.8416 9.32216 6.15386C9.32216 4.7184 8.16452 3.54533 6.72906 3.54533C6.03723 3.54533 5.37374 3.82016 4.88455 4.30935C4.39535 4.79855 4.12052 5.46204 4.12052 6.15386C4.12052 7.58933 5.29359 8.74696 6.72906 8.74696ZM8.87454 24.0895V11.1703H4.59901V24.0895H8.87454Z" fill="white"/>
</svg>
