<svg width="53" height="54" viewBox="0 0 53 54" fill="none" xmlns="http://www.w3.org/2000/svg">
<path d="M4.05033 13.786L26.5 0.580093L48.9497 13.786V40.214L26.5 53.4199L4.05033 40.214V13.786Z" fill="url(#paint0_linear_402_19)" stroke="white"/>
<path d="M16.1985 19.8963C16.232 19.5274 16.1036 19.1584 15.858 18.9083L13.3405 15.5065V15H21.1664L27.2173 29.864L32.5369 15H40V15.5065L37.8454 17.8202C37.6612 17.9766 37.5663 18.2392 37.6053 18.4956V35.5044C37.5663 35.7608 37.6612 36.0235 37.8454 36.1798L39.9498 38.4935V39H29.3608V38.4935L31.5433 36.1235C31.7554 35.8859 31.7554 35.8108 31.7554 35.4482V21.7035L25.6878 38.9562H24.8673L17.8117 21.7035V33.2658C17.7503 33.7535 17.8954 34.2413 18.2024 34.5915L21.038 38.4435V38.95H13V38.4497L15.8356 34.5915C16.1371 34.2413 16.2766 33.7473 16.1985 33.2658V19.8963Z" fill="white"/>
<defs>
<linearGradient id="paint0_linear_402_19" x1="4.5" y1="27" x2="48.5" y2="27" gradientUnits="userSpaceOnUse">
<stop stop-color="#8B159C"/>
<stop offset="1" stop-color="#4A5BCE"/>
</linearGradient>
</defs>
</svg>
