<svg width="25" height="25" viewBox="0 0 25 25" fill="none" xmlns="http://www.w3.org/2000/svg">
<path d="M2.96155 5.10031C2.99256 4.716 2.87368 4.33168 2.64627 4.07113L0.315278 0.527618V0H7.56151L13.1642 15.4833L18.0897 0H25V0.527618L23.005 2.93773C22.8344 3.10057 22.7465 3.37415 22.7827 3.64122V21.3588C22.7465 21.6258 22.8344 21.8994 23.005 22.0623L24.9535 24.4724V25H15.1489V24.4724L17.1697 22.0036C17.3661 21.7561 17.3661 21.678 17.3661 21.3002V6.9828L11.748 24.9544H10.9882L4.45524 6.9828V19.0268C4.39839 19.5349 4.53277 20.043 4.81704 20.4078L7.44263 24.4203V24.9479H0V24.4268L2.62559 20.4078C2.90469 20.043 3.03391 19.5284 2.96155 19.0268V5.10031Z" fill="black"/>
</svg>
