<svg width="33" height="33" viewBox="0 0 33 33" fill="none" xmlns="http://www.w3.org/2000/svg">
<path d="M16.6724 0.413574C7.8536 0.413574 0.701172 7.56601 0.701172 16.3848C0.701172 25.2035 7.8536 32.356 16.6724 32.356C25.4911 32.356 32.6436 25.2035 32.6436 16.3848C32.6436 7.56601 25.4951 0.413574 16.6724 0.413574ZM8.58029 16.9211L8.64817 16.8133L12.8047 10.3131C12.8186 10.2917 12.838 10.2744 12.8609 10.2631C12.8837 10.2518 12.9092 10.2469 12.9346 10.2488C12.9601 10.2507 12.9845 10.2594 13.0054 10.274C13.0264 10.2885 13.043 10.3085 13.0536 10.3317C13.7456 11.8875 14.3472 13.8227 14.0651 15.0272C13.9479 15.5223 13.6192 16.1931 13.2479 16.8133C13.2002 16.9041 13.1483 16.9924 13.0922 17.0782C13.0787 17.0973 13.0607 17.1128 13.0398 17.1232C13.0189 17.1337 12.9957 17.1388 12.9724 17.1381H8.70407C8.67859 17.1385 8.65349 17.132 8.63141 17.1192C8.60934 17.1065 8.59113 17.088 8.57871 17.0658C8.56629 17.0435 8.56012 17.0183 8.56087 16.9929C8.56162 16.9674 8.56925 16.9426 8.58295 16.9211H8.58029ZM27.0989 19.1571C27.0992 19.1855 27.0912 19.2134 27.0758 19.2373C27.0604 19.2612 27.0384 19.2801 27.0124 19.2915C26.689 19.4286 25.5883 19.937 25.1304 20.5719C23.9619 22.1983 23.0702 24.5247 21.0738 24.5247H12.7501C12.0473 24.5237 11.3516 24.3842 10.7028 24.1141C10.054 23.8441 9.46471 23.4489 8.9687 22.951C8.47269 22.4531 8.07965 21.8624 7.81204 21.2126C7.54443 20.5627 7.4075 19.8665 7.40907 19.1638V19.0679C7.40907 18.9907 7.47296 18.9268 7.55281 18.9268H12.1911C12.2843 18.9268 12.3508 19.0107 12.3442 19.1025C12.3096 19.4033 12.3668 19.7134 12.5105 19.9943C12.7847 20.5532 13.357 20.902 13.9732 20.902H16.2704V19.1092H13.9972C13.9706 19.1089 13.9445 19.1014 13.9218 19.0874C13.8992 19.0734 13.8807 19.0535 13.8686 19.0298C13.8564 19.0061 13.8509 18.9795 13.8527 18.9529C13.8545 18.9264 13.8635 18.9008 13.8787 18.8789L13.9626 18.7591C14.1755 18.4517 14.483 17.9792 14.7891 17.4389C14.9967 17.0742 15.199 16.6856 15.3614 16.2943C15.3933 16.2251 15.4186 16.1519 15.4479 16.0813C15.4918 15.9562 15.5371 15.8391 15.569 15.7233C15.6004 15.6251 15.6292 15.5261 15.6555 15.4265C15.7314 15.0938 15.7633 14.7424 15.7633 14.3791C15.7633 14.2353 15.758 14.0849 15.7447 13.9438C15.738 13.7881 15.7181 13.6311 15.6995 13.4753C15.6846 13.336 15.6633 13.1975 15.6356 13.0601C15.5998 12.8509 15.5562 12.6432 15.5051 12.4372L15.4865 12.3574C15.4466 12.2136 15.412 12.0779 15.3667 11.9355C15.24 11.4981 15.0943 11.0665 14.9302 10.6418C14.873 10.482 14.8099 10.3244 14.7412 10.1693C14.6454 9.9324 14.5469 9.71812 14.4577 9.51715C14.4133 9.43105 14.3716 9.34361 14.3326 9.25496C14.2893 9.15932 14.2436 9.06479 14.1955 8.97147C14.1636 8.90093 14.125 8.83305 14.0997 8.76917L13.8188 8.25277C13.7802 8.18223 13.8441 8.09572 13.9213 8.11834L15.6782 8.59349H15.6915L15.9217 8.66003L16.1773 8.7319L16.2704 8.75719V7.71507C16.2704 7.21065 16.6724 6.80205 17.1741 6.80205C17.2926 6.80173 17.4099 6.82539 17.519 6.87159C17.6281 6.91779 17.7268 6.98559 17.809 7.0709C17.9789 7.2423 18.0745 7.47371 18.0752 7.71507V9.26428L18.2628 9.31618C18.2761 9.32284 18.2921 9.32949 18.3041 9.33881C18.3493 9.37075 18.4159 9.42133 18.4997 9.48521C18.5663 9.53579 18.6368 9.59967 18.7193 9.66755C18.9822 9.88167 19.237 10.1054 19.4833 10.3383C19.7681 10.6032 20.0875 10.9133 20.3937 11.258C20.4802 11.3565 20.5627 11.4523 20.6492 11.5588C20.7317 11.6639 20.8249 11.7664 20.9021 11.8676C21.0072 12.006 21.115 12.1497 21.2148 12.2988C21.2588 12.3693 21.3133 12.4425 21.3546 12.5131C21.4824 12.7021 21.5915 12.8964 21.6966 13.092C21.7419 13.1812 21.7858 13.2797 21.8244 13.3755C21.9429 13.6377 22.036 13.9026 22.0933 14.1714C22.1122 14.2285 22.1251 14.2874 22.1318 14.3471V14.3604C22.1505 14.4363 22.1571 14.5201 22.1638 14.6053C22.2013 14.9987 22.1531 15.3955 22.0227 15.7685C21.9815 15.8803 21.9429 15.9948 21.8923 16.1066C21.7925 16.3329 21.678 16.5631 21.5409 16.7747C21.4957 16.8546 21.4411 16.9371 21.3905 17.017C21.3333 17.1008 21.2721 17.1807 21.2215 17.2565C21.1483 17.3573 21.0715 17.4554 20.9912 17.5507C20.9207 17.6465 20.8502 17.7423 20.7703 17.8288C20.6625 17.9593 20.5574 18.0817 20.4442 18.1988C20.3803 18.276 20.3111 18.3559 20.2366 18.4251C20.1674 18.5049 20.0929 18.5755 20.029 18.6394C19.9172 18.7512 19.8293 18.835 19.7521 18.9082L19.5698 19.0706C19.5444 19.0961 19.5099 19.1104 19.474 19.1105H18.0752V20.902H19.8347C20.2273 20.902 20.6013 20.7635 20.9047 20.5053C21.0072 20.4162 21.4571 20.0262 21.9908 19.4379C22.0082 19.4179 22.0315 19.4039 22.0573 19.398L26.9152 17.9912C26.9365 17.985 26.959 17.9839 26.9809 17.9879C27.0027 17.9918 27.0233 18.0008 27.0411 18.0141C27.0589 18.0274 27.0734 18.0446 27.0834 18.0644C27.0934 18.0842 27.0987 18.1061 27.0989 18.1283V19.1571Z" fill="white"/>
</svg>
