<svg width="25" height="25" viewBox="0 0 25 25" fill="none" xmlns="http://www.w3.org/2000/svg">
<path d="M22.8686 0.220707C22.8686 0.220707 25.1813 -0.861435 24.9886 1.76663C24.9244 2.84878 24.3462 6.63628 23.8965 10.733L22.3547 22.8685C22.3547 22.8685 22.2263 24.6463 21.0699 24.9555C19.9135 25.2646 18.1791 23.8733 17.8578 23.5641C17.6008 23.3323 13.0398 19.8539 11.4337 18.1534C10.984 17.6896 10.4701 16.7621 11.4979 15.6799L18.2433 7.95035C19.0142 7.02278 19.7851 4.8585 16.573 7.48657L7.57923 14.8297C7.57923 14.8297 6.55137 15.6026 4.62417 14.907L0.448465 13.3611C0.448465 13.3611 -1.09333 12.2016 1.54057 11.0421C7.96471 7.40921 15.8664 3.699 22.8686 0.220707Z" fill="black"/>
</svg>
