<svg width="53" height="54" viewBox="0 0 53 54" fill="none" xmlns="http://www.w3.org/2000/svg">
<path d="M4.05033 13.786L26.5 0.580093L48.9497 13.786V40.214L26.5 53.4199L4.05033 40.214V13.786Z" fill="url(#paint0_linear_402_14)" stroke="white"/>
<path d="M39.9231 17.2759L35.8486 38.4909C35.5412 39.9882 34.7396 40.3608 33.6004 39.6554L27.3923 34.6046L24.3967 37.7855C24.0652 38.1515 23.7879 38.4576 23.149 38.4576L23.595 31.4769L35.1012 19.9977C35.6015 19.5052 34.9927 19.2324 34.3237 19.7248L20.0992 29.6136L13.9754 27.4974C12.6434 27.0383 12.6193 26.0268 14.2527 25.3214L38.2053 15.1331C39.3143 14.674 40.2847 15.406 39.9231 17.2759Z" fill="white"/>
<defs>
<linearGradient id="paint0_linear_402_14" x1="4.5" y1="27" x2="48.5" y2="27" gradientUnits="userSpaceOnUse">
<stop stop-color="#8B159C"/>
<stop offset="1" stop-color="#4A5BCE"/>
</linearGradient>
</defs>
</svg>
