<svg width="53" height="54" viewBox="0 0 53 54" fill="none" xmlns="http://www.w3.org/2000/svg">
<path d="M4.05033 13.786L26.5 0.580093L48.9497 13.786V40.214L26.5 53.4199L4.05033 40.214V13.786Z" fill="url(#paint0_linear_401_4)" stroke="white"/>
<path d="M40 17.7059C39.0062 18.1794 37.935 18.4906 36.825 18.6394C37.9608 17.9224 38.8384 16.7859 39.2514 15.4194C38.1802 16.0959 36.9928 16.5694 35.7409 16.84C34.7213 15.6765 33.2887 15 31.6625 15C28.6295 15 26.1515 17.5976 26.1515 20.8041C26.1515 21.2641 26.2032 21.7106 26.2935 22.13C21.6989 21.8865 17.6076 19.5729 14.8843 16.0688C14.4068 16.9212 14.1358 17.9224 14.1358 18.9776C14.1358 20.9935 15.1037 22.7794 16.6009 23.7941C15.6845 23.7941 14.8327 23.5235 14.0841 23.1176C14.0841 23.1176 14.0841 23.1176 14.0841 23.1582C14.0841 25.9724 15.9943 28.3265 18.5239 28.8541C18.0593 28.9894 17.5688 29.0571 17.0655 29.0571C16.717 29.0571 16.3685 29.0165 16.033 28.9488C16.7299 31.2353 18.7562 32.94 21.1955 32.9806C19.3112 34.55 16.9235 35.47 14.3164 35.47C13.8776 35.47 13.4388 35.4429 13 35.3888C15.4522 37.0394 18.369 38 21.4924 38C31.6625 38 37.251 29.1518 37.251 21.4806C37.251 21.2235 37.251 20.98 37.238 20.7229C38.3222 19.9112 39.2514 18.8829 40 17.7059Z" fill="white"/>
<defs>
<linearGradient id="paint0_linear_401_4" x1="4.5" y1="27" x2="48.5" y2="27" gradientUnits="userSpaceOnUse">
<stop stop-color="#8B159C"/>
<stop offset="1" stop-color="#4A5BCE"/>
</linearGradient>
</defs>
</svg>
