<svg width="32" height="22" viewBox="0 0 32 22" fill="none" xmlns="http://www.w3.org/2000/svg">
<path d="M32 2.58824C30.8222 3.04118 29.5526 3.33882 28.2371 3.48118C29.5832 2.79529 30.6233 1.70824 31.1128 0.401176C29.8432 1.04824 28.4359 1.50118 26.9522 1.76C25.7438 0.647059 24.0459 0 22.1185 0C18.5239 0 15.587 2.48471 15.587 5.55176C15.587 5.99176 15.6482 6.41882 15.7553 6.82C10.3098 6.58706 5.4608 4.37412 2.23327 1.02235C1.6673 1.83765 1.34608 2.79529 1.34608 3.80471C1.34608 5.73294 2.49331 7.44118 4.26769 8.41176C3.18164 8.41176 2.17208 8.15294 1.2849 7.76471V7.80353C1.2849 10.4953 3.54876 12.7471 6.54685 13.2518C5.58429 13.4746 4.57376 13.5056 3.59465 13.3424C4.01011 14.4456 4.82377 15.4109 5.92125 16.1026C7.01873 16.7944 8.34485 17.1777 9.71319 17.1988C7.3937 18.7523 4.51854 19.5921 1.56023 19.58C1.04015 19.58 0.520077 19.5541 0 19.5024C2.90631 21.0812 6.36329 22 10.065 22C22.1185 22 28.7419 13.5365 28.7419 6.19882C28.7419 5.95294 28.7419 5.72 28.7266 5.47412C30.0115 4.69765 31.1128 3.71412 32 2.58824Z" fill="black"/>
</svg>
